<svg xmlns="http://www.w3.org/2000/svg" viewBox="0 0 48 48" width="48" height="48">
<defs>
<linearGradient id="gedge" gradientUnits="userSpaceOnUse" x1="3" y1="5" x2="46" y2="38">
<stop offset="0" stop-color="#6ff0ff"/><stop offset=".55" stop-color="#6aa8ff"/><stop offset="1" stop-color="#a78bff"/>
</linearGradient>
<radialGradient id="gside_body" gradientUnits="userSpaceOnUse" cx="20.0" cy="19.6" r="15">
<stop offset="0" stop-color="#CFF2F7"/><stop offset=".5" stop-color="#7EC8D6"/><stop offset="1" stop-color="#4FA9BE"/>
</radialGradient>
<radialGradient id="gside_head" gradientUnits="userSpaceOnUse" cx="33.3" cy="18.3" r="7">
<stop offset="0" stop-color="#CFF2F7"/><stop offset=".55" stop-color="#7EC8D6"/><stop offset="1" stop-color="#4FA9BE"/>
</radialGradient>
<linearGradient id="ghalo" gradientUnits="userSpaceOnUse" x1="7" y1="34.34" x2="41" y2="36.34">
<stop offset="0" stop-color="#22d3ee"/><stop offset=".55" stop-color="#5ea8ff"/><stop offset="1" stop-color="#8b5cf6"/>
</linearGradient>
</defs>
<g style="filter:drop-shadow(0 0 5px rgba(120,222,240,.5))"><ellipse cx="24.0" cy="34.34" rx="16.5" ry="4.2" fill="none" stroke="url(#ghalo)" stroke-width="1" opacity=".85" stroke-dasharray="3.2 2.2"/><path d="M 24.0 31.940000000000005 l1.7 1.5 -1.7 1.5 -1.7 -1.5 Z" fill="none" stroke="#8b5cf6" stroke-width=".8" opacity=".95"/><circle cx="24.0" cy="33.440000000000005" r=".55" fill="#22d3ee"/><polygon points="15.95,28.86 15.95,23.66 13.60,23.24 13.60,28.44" fill="#6ECBD7" stroke="url(#gedge)" stroke-width=".45" stroke-linejoin="round"/><polygon points="12.30,29.27 14.65,29.70 15.95,28.86 13.60,28.44" fill="#A8E2EC" stroke="url(#gedge)" stroke-width=".45" stroke-linejoin="round"/><polygon points="13.60,28.44 13.60,23.24 12.30,24.07 12.30,29.27" fill="#50BBCD" stroke="url(#gedge)" stroke-width=".45" stroke-linejoin="round"/><polygon points="14.65,29.70 14.65,24.50 15.95,23.66 15.95,28.86" fill="#50BBCD" stroke="url(#gedge)" stroke-width=".45" stroke-linejoin="round"/><polygon points="12.30,24.07 13.60,23.24 15.95,23.66 14.65,24.50" fill="#A8E2EC" stroke="url(#gedge)" stroke-width=".45" stroke-linejoin="round"/><polygon points="12.30,29.27 12.30,24.07 14.65,24.50 14.65,29.70" fill="#6ECBD7" stroke="url(#gedge)" stroke-width=".45" stroke-linejoin="round"/><polygon points="12.66,23.07 12.66,12.01 7.79,15.15 7.79,26.20" fill="#50BBCD" stroke="url(#gedge)" stroke-width=".45" stroke-linejoin="round"/><polygon points="11.68,14.97 11.68,14.09 9.56,13.71 9.56,14.58" fill="#6ECBD7" stroke="url(#gedge)" stroke-width=".45" stroke-linejoin="round"/><polygon points="12.37,31.16 12.37,25.96 10.03,25.53 10.03,30.73" fill="#6ECBD7" stroke="url(#gedge)" stroke-width=".45" stroke-linejoin="round"/><polygon points="10.97,14.34 9.21,10.64 5.80,7.15" fill="#6ECBD7" stroke="url(#gedge)" stroke-width=".45" stroke-linejoin="round"/><polygon points="8.73,31.57 11.08,32.00 12.37,31.16 10.03,30.73" fill="#A8E2EC" stroke="url(#gedge)" stroke-width=".45" stroke-linejoin="round"/><polygon points="10.03,30.73 10.03,25.53 8.73,26.37 8.73,31.57" fill="#50BBCD" stroke="url(#gedge)" stroke-width=".45" stroke-linejoin="round"/><polygon points="9.56,14.58 9.56,13.71 8.06,14.67 8.06,15.55" fill="#50BBCD" stroke="url(#gedge)" stroke-width=".45" stroke-linejoin="round"/><polygon points="8.06,15.55 10.18,15.93 11.68,14.97 9.56,14.58" fill="#A8E2EC" stroke="url(#gedge)" stroke-width=".45" stroke-linejoin="round"/><polygon points="4.31,8.11 5.80,7.15 10.97,14.34 9.47,15.30" fill="#A8E2EC" stroke="url(#gedge)" stroke-width=".45" stroke-linejoin="round"/><polygon points="8.06,14.67 9.56,13.71 11.68,14.09 10.18,15.06" fill="#A8E2EC" stroke="url(#gedge)" stroke-width=".45" stroke-linejoin="round"/><polygon points="7.71,11.61 9.21,10.64 5.80,7.15 4.31,8.11" fill="#A8E2EC" stroke="url(#gedge)" stroke-width=".45" stroke-linejoin="round"/><polygon points="9.47,15.30 10.97,14.34 9.21,10.64 7.71,11.61" fill="#50BBCD" stroke="url(#gedge)" stroke-width=".45" stroke-linejoin="round"/><polygon points="11.08,32.00 11.08,26.80 12.37,25.96 12.37,31.16" fill="#50BBCD" stroke="url(#gedge)" stroke-width=".45" stroke-linejoin="round"/><polygon points="37.26,27.54 37.26,16.49 12.66,12.01 12.66,23.07" fill="url(#gside_body)" stroke="url(#gedge)" stroke-width=".45" stroke-linejoin="round"/><polygon points="10.18,15.93 10.18,15.06 11.68,14.09 11.68,14.97" fill="#50BBCD" stroke="url(#gedge)" stroke-width=".45" stroke-linejoin="round"/><polygon points="8.73,26.37 10.03,25.53 12.37,25.96 11.08,26.80" fill="#A8E2EC" stroke="url(#gedge)" stroke-width=".45" stroke-linejoin="round"/><polygon points="8.73,31.57 8.73,26.37 11.08,26.80 11.08,32.00" fill="#6ECBD7" stroke="url(#gedge)" stroke-width=".45" stroke-linejoin="round"/><polygon points="8.06,15.55 8.06,14.67 10.18,15.06 10.18,15.93" fill="#6ECBD7" stroke="url(#gedge)" stroke-width=".45" stroke-linejoin="round"/><polygon points="9.47,15.30 4.31,8.11 7.71,11.61" fill="#6ECBD7" stroke="url(#gedge)" stroke-width=".45" stroke-linejoin="round"/><polygon points="36.04,32.52 36.04,27.32 33.60,26.87 33.60,32.07" fill="#6ECBD7" stroke="url(#gedge)" stroke-width=".45" stroke-linejoin="round"/><polygon points="32.30,32.91 34.74,33.35 36.04,32.52 33.60,32.07" fill="#A8E2EC" stroke="url(#gedge)" stroke-width=".45" stroke-linejoin="round"/><polygon points="7.79,26.20 32.39,30.67 37.26,27.54 12.66,23.07" fill="#A8E2EC" stroke="url(#gedge)" stroke-width=".45" stroke-linejoin="round"/><polygon points="33.60,32.07 33.60,26.87 32.30,27.71 32.30,32.91" fill="#50BBCD" stroke="url(#gedge)" stroke-width=".45" stroke-linejoin="round"/><polygon points="34.74,33.35 34.74,28.15 36.04,27.32 36.04,32.52" fill="#50BBCD" stroke="url(#gedge)" stroke-width=".45" stroke-linejoin="round"/><polygon points="32.30,27.71 33.60,26.87 36.04,27.32 34.74,28.15" fill="#A8E2EC" stroke="url(#gedge)" stroke-width=".45" stroke-linejoin="round"/><polygon points="32.30,32.91 32.30,27.71 34.74,28.15 34.74,33.35" fill="#6ECBD7" stroke="url(#gedge)" stroke-width=".45" stroke-linejoin="round"/><polygon points="7.79,15.15 12.66,12.01 37.26,16.49 32.39,19.62" fill="#A8E2EC" stroke="url(#gedge)" stroke-width=".45" stroke-linejoin="round"/><polygon points="43.69,21.94 43.69,12.84 33.92,11.06 33.92,20.16" fill="url(#gside_head)" stroke="url(#gedge)" stroke-width=".45" stroke-linejoin="round"/><polygon points="32.47,34.81 32.47,29.62 30.03,29.17 30.03,34.37" fill="#6ECBD7" stroke="url(#gedge)" stroke-width=".45" stroke-linejoin="round"/><polygon points="28.73,35.21 31.17,35.65 32.47,34.81 30.03,34.37" fill="#A8E2EC" stroke="url(#gedge)" stroke-width=".45" stroke-linejoin="round"/><polygon points="7.79,26.20 7.79,15.15 32.39,19.62 32.39,30.67" fill="url(#gside_body)" stroke="url(#gedge)" stroke-width=".45" stroke-linejoin="round"/><polygon points="30.03,34.37 30.03,29.17 28.73,30.01 28.73,35.21" fill="#50BBCD" stroke="url(#gedge)" stroke-width=".45" stroke-linejoin="round"/><polygon points="31.17,35.65 31.17,30.45 32.47,29.62 32.47,34.81" fill="#50BBCD" stroke="url(#gedge)" stroke-width=".45" stroke-linejoin="round"/><polygon points="28.73,30.01 30.03,29.17 32.47,29.62 31.17,30.45" fill="#A8E2EC" stroke="url(#gedge)" stroke-width=".45" stroke-linejoin="round"/><polygon points="32.39,30.67 32.39,19.62 37.26,16.49 37.26,27.54" fill="#50BBCD" stroke="url(#gedge)" stroke-width=".45" stroke-linejoin="round"/><polygon points="28.73,35.21 28.73,30.01 31.17,30.45 31.17,35.65" fill="#6ECBD7" stroke="url(#gedge)" stroke-width=".45" stroke-linejoin="round"/><polygon points="33.92,20.16 33.92,11.06 28.40,14.62 28.40,23.71" fill="#50BBCD" stroke="url(#gedge)" stroke-width=".45" stroke-linejoin="round"/><polygon points="28.40,23.71 38.17,25.49 43.69,21.94 33.92,20.16" fill="#A8E2EC" stroke="url(#gedge)" stroke-width=".45" stroke-linejoin="round"/><polygon points="28.40,14.62 33.92,11.06 43.69,12.84 38.17,16.39" fill="#A8E2EC" stroke="url(#gedge)" stroke-width=".45" stroke-linejoin="round"/><polygon points="38.17,25.49 38.17,16.39 43.69,12.84 43.69,21.94" fill="#50BBCD" stroke="url(#gedge)" stroke-width=".45" stroke-linejoin="round"/><polygon points="28.40,23.71 28.40,14.62 38.17,16.39 38.17,25.49" fill="url(#gside_head)" stroke="url(#gedge)" stroke-width=".45" stroke-linejoin="round"/><polygon points="30.71,16.58 34.24,17.22 33.06,22.25" fill="#6ECBD7" stroke="url(#gedge)" stroke-width=".45" stroke-linejoin="round"/><polygon points="30.71,16.58 29.48,17.37 30.08,25.17 33.06,22.25" fill="#50BBCD" stroke="url(#gedge)" stroke-width=".45" stroke-linejoin="round"/><polygon points="30.71,16.58 34.24,17.22 33.00,18.01 29.48,17.37" fill="#A8E2EC" stroke="url(#gedge)" stroke-width=".45" stroke-linejoin="round"/><polygon points="34.24,17.22 33.06,22.25 30.08,25.17 33.00,18.01" fill="#50BBCD" stroke="url(#gedge)" stroke-width=".45" stroke-linejoin="round"/><polygon points="29.48,17.37 30.08,25.17 33.00,18.01" fill="#6ECBD7" stroke="url(#gedge)" stroke-width=".45" stroke-linejoin="round"/></g>
</svg>